<svg preserveAspectRatio="none" overflow="visible" style="display: block;" width="132" height="74" viewBox="0 0 132 74" fill="none" xmlns="http://www.w3.org/2000/svg">
<g id="o.5048 1 [Vectorized]">
<path id="Vector" d="M53.0901 11.066C55.0497 10.9852 57.4779 11.0523 59.4654 11.0524L73.1428 11.0535C75.6199 11.0538 78.3663 11.1147 80.8218 11.0231C80.8406 12.2564 80.837 13.4899 80.8124 14.7231C79.6856 14.5969 77.7505 14.6466 76.5528 14.648C74.1436 14.673 71.7345 14.6602 69.3258 14.6097C70.2367 14.9371 71.2736 15.1153 72.1547 15.4734C82.3683 19.6245 83.8822 33.5194 74.7732 39.7592C72.9235 41.1255 70.8509 41.6883 68.6425 42.2099C68.6265 41.0076 68.6302 39.8051 68.6534 38.6028C67.5399 38.7626 66.3977 38.7037 65.2814 38.6133C65.3001 39.81 65.2847 41.0245 65.2971 42.2251C64.7778 42.0617 64.1472 41.9433 63.6137 41.8105C58.8013 40.6121 54.9552 36.9298 53.5348 32.1788C52.995 29.9682 52.889 26.8378 53.498 24.647C54.6108 20.6438 57.6637 17.1172 61.5203 15.5335C62.3989 15.1727 63.6781 14.8776 64.59 14.6188L58.2522 14.6481C56.6013 14.6471 54.7151 14.6031 53.0922 14.6852C53.1453 13.7205 53.1155 12.0413 53.0901 11.066ZM59.7222 35.7257C61.5958 37.2805 62.8059 37.9866 65.264 38.482C65.1593 36.7567 65.2183 34.6486 65.2183 32.8908L65.2186 23.1563L65.2202 19.8879C65.2207 19.4563 65.2569 18.7829 65.2223 18.3862L65.1183 18.3002L65.0319 18.3158C59.9446 18.8433 56.0381 24.3879 56.637 29.3644C56.9254 31.7609 58.0514 33.9931 59.7222 35.7257ZM68.6836 38.4551C70.3849 38.1461 71.9846 37.4258 73.3425 36.3571C73.6747 36.101 73.9786 35.8987 74.2319 35.5598C79.4171 29.761 77.8149 21.8826 70.5209 18.6489C69.9717 18.4053 69.3007 18.417 68.711 18.2833C68.5553 24.9183 68.8439 31.7964 68.6836 38.4551ZM65.2969 18.099C66.427 17.9991 67.5194 17.979 68.6483 18.1238C68.6826 17.0449 68.6345 15.7548 68.6213 14.6609C67.9502 14.6563 65.8527 14.6972 65.3259 14.6247C65.2377 15.0961 65.2908 17.5139 65.2969 18.099Z" fill="white"/>
<path id="Vector_2" d="M120.444 53.3661C122.745 53.3659 125.793 53.0803 127.89 54.0298C131.72 55.7638 131.208 62.132 127.308 63.5174C126.868 63.7143 125.896 63.9739 125.422 63.9588C124.407 63.9263 120.049 64.2093 119.372 63.8653C119.312 63.6482 119.291 63.6008 119.364 63.3824C119.689 63.1088 120.199 63.2435 120.569 63.055C120.725 62.976 120.779 62.8972 120.834 62.7315C121.106 61.9217 121.121 55.0665 120.764 54.4652C120.509 54.0353 119.924 54.2852 119.539 54.1568C119.38 54.1035 119.378 54.068 119.301 53.9262C119.315 53.7391 119.302 53.6317 119.412 53.4823C119.649 53.3692 120.161 53.3781 120.444 53.3661ZM127.831 61.8889C128.463 61.3461 128.844 59.9838 128.893 59.1829C129.05 56.6482 127.722 54.4375 124.977 54.3211C124.263 54.2909 123.115 54.386 122.473 54.2562C122.431 55.2758 122.352 62.1567 122.56 62.6893C123.028 63.1035 123.67 63.0372 124.249 63.0663C125.71 63.1397 126.719 62.8802 127.831 61.8889Z" fill="white" fill-opacity="0.984314"/>
<path id="Vector_3" d="M20.2544 53.3584C23.1881 53.0202 25.8439 55.1133 26.1963 58.0412C26.5486 60.9691 24.465 63.6309 21.5346 63.9964C18.5847 64.3644 15.8977 62.267 15.543 59.3196C15.1883 56.3722 17.3013 53.6989 20.2544 53.3584ZM21.4334 63.0557C24.278 62.6823 25.1694 60.3373 24.7262 57.772C24.3441 55.5602 22.4995 54.2054 20.2909 54.2957C17.636 54.6067 16.6963 56.6513 16.9427 59.0912C17.2016 61.6559 18.8861 63.0869 21.4334 63.0557Z" fill="white" fill-opacity="0.980392"/>
<path id="Vector_4" d="M98.3834 53.3594C101.315 53.0363 103.959 55.1388 104.298 58.065C104.638 60.9912 102.548 63.6422 99.6188 63.9979C96.6676 64.3565 93.987 62.2486 93.6447 59.2992C93.3017 56.3498 95.4279 53.6851 98.3834 53.3594ZM99.5724 63.05C102.334 62.7103 103.21 60.4308 102.836 57.9773C102.477 55.621 100.803 54.2221 98.4522 54.2934C95.653 54.6163 94.752 56.7453 95.0849 59.2981C95.4062 61.7645 97.1329 63.1237 99.5724 63.05Z" fill="white" fill-opacity="0.980392"/>
<path id="Vector_5" d="M76.5187 53.3635C79.4518 53.032 82.1005 55.1314 82.4435 58.0591C82.7866 60.9868 80.6937 63.64 77.7635 63.9932C74.8174 64.3481 72.1434 62.2451 71.7987 59.302C71.4542 56.3591 73.5697 53.6968 76.5187 53.3635ZM77.6738 63.0601C81.7134 62.6893 82.0766 57.2644 79.4489 55.1576C78.6305 54.5142 77.597 54.2064 76.5593 54.2966C72.1413 54.7828 72.1085 61.0004 75.5809 62.6771C76.3132 63.0307 76.8936 63.0502 77.6738 63.0601Z" fill="white" fill-opacity="0.980392"/>
<path id="Vector_6" d="M63.104 58.1159C63.0655 57.0798 63.1886 55.7998 63.0317 54.7878C62.9128 54.0206 61.8272 54.3043 61.5152 54.1194C61.4389 53.868 61.3837 53.6495 61.5679 53.4372C62.2848 53.3252 65.5907 53.297 66.1783 53.5245C66.205 53.6342 66.2416 53.7543 66.218 53.8675C66.1252 54.3114 65.1505 54.1778 64.781 54.4749C64.5916 54.6272 64.5824 55.1786 64.567 55.4155C64.5002 56.4373 64.4311 62.2993 64.735 62.8491C64.8985 63.1449 65.9218 63.143 66.2335 63.4947C66.2698 63.7322 66.2851 63.6334 66.1424 63.8712C65.9142 64.0081 65.4938 64.0002 65.2127 64.0174C63.9344 64.0238 62.8294 64.0164 61.5544 63.9411C61.3671 63.7183 61.4062 63.8177 61.3642 63.5593C61.5068 63.2275 62.3829 63.1266 62.84 62.9134C63.2459 62.4943 63.0962 59.8317 63.0883 59.0892C61.6759 59.1204 60.2616 59.0779 58.849 59.0943C58.2948 59.1008 57.7404 59.1104 57.1912 59.0244C57.2009 59.8074 56.9739 62.6105 57.5533 62.9728C57.8017 63.1282 58.5358 63.1223 58.7704 63.4206C58.8318 63.6359 58.8144 63.6736 58.7515 63.8913C58.4439 64.0953 54.9121 63.9914 54.2917 63.9638C54.0647 63.7933 54.1097 63.8736 54.0334 63.6523C54.1855 63.2469 55.0747 63.1159 55.5913 62.7841C55.8406 62.4921 55.7433 55.5032 55.636 54.6209C55.6003 54.3273 54.3136 54.2277 54.0244 53.8417C54.0271 53.632 54.057 53.6612 54.2109 53.471C54.4292 53.3546 54.8569 53.3748 55.1245 53.367C55.7062 53.3614 58.4541 53.2851 58.7411 53.5178C58.8133 53.7153 58.7642 53.8559 58.7255 54.0664C58.421 54.2889 58.0533 54.1177 57.4239 54.4277L57.3931 54.4433C57.066 55.4879 57.23 56.8983 57.1591 58.0938C59.0891 58.1493 61.1631 58.1156 63.104 58.1159Z" fill="white" fill-opacity="0.984314"/>
<path id="Vector_7" d="M89.6218 46.8543C90.3737 46.8283 91.1321 46.7468 91.8464 47.0401C92.5563 47.3316 93.3321 48.1378 93.0795 48.9686C93.0028 49.2268 92.8219 49.4413 92.5802 49.5605C92.3168 49.6915 92.0772 49.7234 91.8001 49.6268C91.3318 49.294 91.5135 48.59 91.2978 48.1147C91.0785 47.632 90.0256 47.7853 89.6949 48.041C88.0651 49.3008 87.8965 51.5911 87.4254 53.3989C88.0159 53.3502 88.7497 53.3977 89.3526 53.4204L89.1195 54.3862C88.4668 54.4068 87.8922 54.4262 87.2365 54.3948C87.0172 56.0438 86.6641 57.6803 86.4159 59.3263C85.9368 62.5081 85.7414 67.3578 83.3445 69.7087C83.2613 69.7957 83.1759 69.8833 83.0804 69.9571C82.6932 70.2573 82.1309 70.38 81.6504 70.3181C81.0743 70.2438 80.478 69.9663 80.1205 69.4986C79.8817 69.1872 79.7362 68.7656 79.8021 68.3721C79.8347 68.1737 79.9215 68.0072 80.0966 67.8976C80.3166 67.7597 80.6314 67.7358 80.8789 67.8006C81.3862 67.9333 81.5035 68.5265 81.743 68.9189C81.8364 69.072 81.9449 69.1935 82.1295 69.2279C82.3133 69.2621 82.5224 69.2042 82.6759 69.1009C84.1319 68.1222 84.7043 60.699 84.9461 58.8025C85.1349 57.3215 85.3759 55.8461 85.5814 54.367C85.1588 54.4016 84.4655 54.3835 84.0132 54.3926C84.1536 54.0173 84.2151 53.7639 84.3085 53.38C84.7962 53.3835 85.2833 53.3907 85.771 53.4018C86.3594 50.9678 86.6938 47.5644 89.6218 46.8543Z" fill="white" fill-opacity="0.988235"/>
<path id="Vector_8" d="M107.241 53.3649C108.202 53.3667 109.792 53.3016 110.722 53.4948C110.783 53.5074 110.826 53.6631 110.861 53.7467C110.696 54.3331 109.118 54.2427 109.197 54.9246C109.458 57.1687 108.171 62.0463 111.08 62.8702C112.677 63.3226 114.793 62.6122 114.934 60.7645C115.082 58.8443 114.984 56.8578 115.019 54.9256C115.04 54.1369 113.707 54.275 113.429 53.9027C113.414 53.6583 113.42 53.7266 113.548 53.4859C114.02 53.2966 116.099 53.3743 116.755 53.3812C117.134 53.3829 117.534 53.325 117.803 53.5615C117.837 53.7804 117.806 53.8314 117.726 54.0332C117.333 54.4615 116.323 53.9417 116.251 54.6914C116.067 56.6032 116.37 58.7207 116.19 60.6167C116.149 61.0594 116.036 61.4925 115.856 61.8988C115.406 62.9104 114.721 63.4249 113.706 63.8098C112.418 64.285 110.995 64.2396 109.741 63.6832C107.619 62.7248 107.713 60.8443 107.724 58.9195L107.745 56.1565C107.746 55.7962 107.767 54.9542 107.619 54.6434C107.361 54.1032 106.607 54.2676 106.149 54.0865C106.026 53.8687 106.086 53.6799 106.213 53.4918C106.46 53.3443 106.933 53.3723 107.241 53.3649Z" fill="white" fill-opacity="0.984314"/>
<path id="Vector_9" d="M29.3947 53.3648C30.2962 53.3565 31.9737 53.3185 32.8676 53.4819C32.9718 53.501 32.9844 53.6218 33.0317 53.746C32.8951 54.1765 32.142 54.2214 31.77 54.4294C31.5658 54.5436 31.4041 54.7367 31.3522 54.9678C31.2518 55.4154 31.3184 60.0292 31.4146 60.5969C31.4944 61.0681 31.6474 61.5213 31.9163 61.9199C32.2864 62.4687 32.8161 62.801 33.4652 62.925C34.3193 63.0882 35.3981 62.9738 36.1147 62.4655C36.6942 62.0543 36.9775 61.4253 37.0936 60.7408C37.2063 60.0759 37.3217 54.9398 37.0363 54.554C36.6771 54.0683 35.9045 54.3537 35.5664 53.8826C35.5788 53.6726 35.5856 53.649 35.7103 53.4797C36.2032 53.2958 38.1554 53.3751 38.8076 53.3838C39.1979 53.3903 39.4721 53.3365 39.7609 53.5476C40.1666 54.6066 38.3809 53.8843 38.2941 54.7976C38.0986 56.8514 38.3176 58.9133 38.2172 60.981C38.0456 64.5133 32.0344 65.182 30.4227 62.424C29.8461 61.4373 29.8854 60.1068 29.8902 58.9848L29.9151 55.9258C29.9422 53.4921 29.0366 54.7993 28.189 53.832C28.1934 53.2936 28.9913 53.3802 29.3947 53.3648Z" fill="white" fill-opacity="0.984314"/>
<path id="Vector_10" d="M3.77653 53.3656C6.82025 53.4219 9.99495 53.3725 13.0493 53.3763C13.1082 53.9355 13.496 56.1109 13.0605 56.3518C12.8329 56.2887 12.5851 55.9765 12.473 55.779C11.4328 53.9459 11.0123 54.3359 9.06986 54.2992C9.02058 56.8306 9.07978 59.4491 9.06277 61.9874C9.05973 62.4418 9.10149 62.6914 9.42454 62.9907C9.77343 63.1472 10.5498 63.1712 10.6994 63.4203C10.6806 63.7256 10.7269 63.6956 10.5772 63.9188C9.98171 64.1035 6.73026 64.0364 6.0849 63.8941C5.93415 63.7405 5.96753 63.8163 5.95198 63.6118C6.38366 62.7584 7.49744 63.5364 7.57668 62.329C7.6395 61.3727 7.6099 60.4066 7.60911 59.4478L7.61772 54.3C6.18281 54.3058 5.19666 53.9985 4.41311 55.491C4.26894 55.7656 3.83248 56.4262 3.47667 56.3514C3.32844 56.0175 3.53046 53.6011 3.77653 53.3656Z" fill="white" fill-opacity="0.984314"/>
<path id="Vector_11" d="M46.9167 53.3525C48.3792 53.2231 49.9942 53.4852 51.2544 54.2678C51.2981 54.7143 51.4084 56.1969 51.1641 56.5196C50.4431 56.4611 50.063 53.2708 46.1302 54.3899C45.1695 54.6601 44.362 55.3118 43.896 56.193C42.3278 59.1208 44.24 63.2142 47.7341 63.2649C48.3843 63.2744 48.7928 63.1543 49.4002 62.9658C50.7148 62.1932 51.0199 60.7524 51.6322 60.5424L51.741 60.6541C51.8688 61.0269 51.5833 62.7343 51.5146 63.2391C51.3081 63.298 51.0351 63.3823 50.8366 63.4572C47.4777 64.7243 42.8299 63.9805 42.1277 59.8489C41.8666 58.3134 42.1979 56.7993 43.067 55.4744C43.945 54.1361 45.3983 53.6254 46.9167 53.3525Z" fill="white" fill-opacity="0.976471"/>
</g>
</svg>
